STARTFONT 2.1
COMMENT Product Version MAUI VERSION
COMMENT  Product Version MAUI VERSION
FONTBOUNDINGBOX 20 20 -1 -3 
STARTPROPERTIES 2
FONT_ASCENT 20
FONT_DESCENT 0
ENDPROPERTIES
CHARS 276
STARTCHAR 32
ENCODING 32
SWIDTH 520 0 
DWIDTH 6 0
BBX 6 20 0 -3
BITMAP
00
00
00
00
00
00
00
00
00
00
00
00
00
00
00
00
00
00
00
00
ENDCHAR
STARTCHAR 33
ENCODING 33
SWIDTH 520 0 
DWIDTH 4 0
BBX 4 20 0 -3
BITMAP
00
00
60
60
60
60
60
60
60
60
60
60
60
00
60
60
00
00
00
00
ENDCHAR
STARTCHAR 34
ENCODING 34
SWIDTH 520 0 
DWIDTH 7 0
BBX 7 20 0 -3
BITMAP
00
00
6C
6C
6C
00
00
00
00
00
00
00
00
00
00
00
00
00
00
00
ENDCHAR
STARTCHAR 35
ENCODING 35
SWIDTH 520 0 
DWIDTH 11 0
BBX 11 20 0 -3
BITMAP
0000
0000
0660
0660
0CC0
0CC0
FFE0
FFE0
1980
1980
FFE0
FFE0
3300
3300
6600
6600
0000
0000
0000
0000
ENDCHAR
STARTCHAR 36
ENCODING 36
SWIDTH 520 0 
DWIDTH 6 0
BBX 6 20 0 -3
BITMAP
00
00
30
30
78
B4
B4
B4
B0
78
34
B4
B4
B4
78
30
00
00
00
00
ENDCHAR
STARTCHAR 37
ENCODING 37
SWIDTH 520 0 
DWIDTH 12 0
BBX 12 20 0 -3
BITMAP
0000
0000
7060
D8C0
D8C0
D980
DB00
7300
0600
0600
0CE0
0DB0
19B0
31B0
31B0
60E0
0000
0000
0000
0000
ENDCHAR
STARTCHAR 38
ENCODING 38
SWIDTH 520 0 
DWIDTH 10 0
BBX 10 20 0 -3
BITMAP
0000
0000
0C00
1E00
3300
3300
3300
1E00
3C00
7C00
CEC0
C6C0
C780
C300
7FC0
3CC0
0000
0000
0000
0000
ENDCHAR
STARTCHAR 39
ENCODING 39
SWIDTH 520 0 
DWIDTH 2 0
BBX 2 20 0 -3
BITMAP
00
00
C0
C0
40
00
00
00
00
00
00
00
00
00
00
00
00
00
00
00
ENDCHAR
STARTCHAR 40
ENCODING 40
SWIDTH 520 0 
DWIDTH 4 0
BBX 4 20 0 -3
BITMAP
00
20
40
C0
C0
C0
C0
C0
C0
C0
C0
C0
C0
C0
C0
C0
40
20
00
00
ENDCHAR
STARTCHAR 41
ENCODING 41
SWIDTH 520 0 
DWIDTH 4 0
BBX 4 20 0 -3
BITMAP
00
40
20
30
30
30
30
30
30
30
30
30
30
30
30
30
20
40
00
00
ENDCHAR
STARTCHAR 42
ENCODING 42
SWIDTH 520 0 
DWIDTH 10 0
BBX 10 20 0 -3
BITMAP
0000
0000
0000
0000
C180
6300
3600
1C00
FF80
1C00
3600
6300
C180
0000
0000
0000
0000
0000
0000
0000
ENDCHAR
STARTCHAR 43
ENCODING 43
SWIDTH 520 0 
DWIDTH 11 0
BBX 11 20 0 -3
BITMAP
0000
0000
0000
0000
0C00
0C00
0C00
0C00
FFC0
FFC0
0C00
0C00
0C00
0C00
0000
0000
0000
0000
0000
0000
ENDCHAR
STARTCHAR 44
ENCODING 44
SWIDTH 520 0 
DWIDTH 4 0
BBX 4 20 0 -3
BITMAP
00
00
00
00
00
00
00
00
00
00
00
00
00
00
60
60
20
C0
00
00
ENDCHAR
STARTCHAR 45
ENCODING 45
SWIDTH 520 0 
DWIDTH 7 0
BBX 7 20 0 -3
BITMAP
00
00
00
00
00
00
00
00
00
FE
FE
00
00
00
00
00
00
00
00
00
ENDCHAR
STARTCHAR 46
ENCODING 46
SWIDTH 520 0 
DWIDTH 2 0
BBX 2 20 0 -3
BITMAP
00
00
00
00
00
00
00
00
00
00
00
00
00
00
C0
C0
00
00
00
00
ENDCHAR
STARTCHAR 47
ENCODING 47
SWIDTH 520 0 
DWIDTH 10 0
BBX 10 20 0 -3
BITMAP
0000
0000
00C0
0180
0180
0300
0300
0600
0C00
0C00
1800
1800
3000
6000
6000
C000
0000
0000
0000
0000
ENDCHAR
STARTCHAR 48
ENCODING 48
SWIDTH 520 0 
DWIDTH 8 0
BBX 8 20 0 -3
BITMAP
00
00
7E
FF
C3
C3
C3
C3
C3
C3
C3
C3
C3
C3
FF
7E
00
00
00
00
ENDCHAR
STARTCHAR 49
ENCODING 49
SWIDTH 520 0 
DWIDTH 5 0
BBX 5 20 0 -3
BITMAP
00
00
18
38
F8
D8
18
18
18
18
18
18
18
18
18
18
00
00
00
00
ENDCHAR
STARTCHAR 50
ENCODING 50
SWIDTH 520 0 
DWIDTH 8 0
BBX 8 20 0 -3
BITMAP
00
00
7E
FF
C3
03
03
03
07
0E
1C
38
70
E0
FF
FF
00
00
00
00
ENDCHAR
STARTCHAR 51
ENCODING 51
SWIDTH 520 0 
DWIDTH 8 0
BBX 8 20 0 -3
BITMAP
00
00
7E
FF
C3
03
03
03
3E
3F
03
03
03
C3
FF
7E
00
00
00
00
ENDCHAR
STARTCHAR 52
ENCODING 52
SWIDTH 520 0 
DWIDTH 8 0
BBX 8 20 0 -3
BITMAP
00
00
0E
1E
1E
36
36
66
66
C6
C6
FF
FF
06
06
06
00
00
00
00
ENDCHAR
STARTCHAR 53
ENCODING 53
SWIDTH 520 0 
DWIDTH 8 0
BBX 8 20 0 -3
BITMAP
00
00
FF
FF
C0
C0
C0
FE
FF
03
03
03
03
C3
FF
7E
00
00
00
00
ENDCHAR
STARTCHAR 54
ENCODING 54
SWIDTH 520 0 
DWIDTH 8 0
BBX 8 20 0 -3
BITMAP
00
00
7E
FF
C3
C0
C0
FE
FF
C3
C3
C3
C3
C3
FF
7E
00
00
00
00
ENDCHAR
STARTCHAR 55
ENCODING 55
SWIDTH 520 0 
DWIDTH 8 0
BBX 8 20 0 -3
BITMAP
00
00
FF
FF
03
06
06
06
0C
0C
0C
18
18
18
30
30
00
00
00
00
ENDCHAR
STARTCHAR 56
ENCODING 56
SWIDTH 520 0 
DWIDTH 8 0
BBX 8 20 0 -3
BITMAP
00
00
7E
FF
C3
C3
C3
C3
7E
FF
C3
C3
C3
C3
FF
7E
00
00
00
00
ENDCHAR
STARTCHAR 57
ENCODING 57
SWIDTH 520 0 
DWIDTH 8 0
BBX 8 20 0 -3
BITMAP
00
00
7E
FF
C3
C3
C3
C3
FF
7F
03
03
03
C3
FF
7E
00
00
00
00
ENDCHAR
STARTCHAR 58
ENCODING 58
SWIDTH 520 0 
DWIDTH 4 0
BBX 4 20 0 -3
BITMAP
00
00
00
00
00
60
60
00
00
00
00
00
60
60
00
00
00
00
00
00
ENDCHAR
STARTCHAR 59
ENCODING 59
SWIDTH 520 0 
DWIDTH 5 0
BBX 5 20 0 -3
BITMAP
00
00
00
00
00
30
30
00
00
00
00
30
30
10
60
00
00
00
00
00
ENDCHAR
STARTCHAR 60
ENCODING 60
SWIDTH 520 0 
DWIDTH 9 0
BBX 9 20 0 -3
BITMAP
0000
0000
0000
0000
0700
0E00
1C00
3800
7000
3800
1C00
0E00
0700
0000
0000
0000
0000
0000
0000
0000
ENDCHAR
STARTCHAR 61
ENCODING 61
SWIDTH 520 0 
DWIDTH 8 0
BBX 8 20 0 -3
BITMAP
00
00
00
00
00
00
FF
FF
00
FF
FF
00
00
00
00
00
00
00
00
00
ENDCHAR
STARTCHAR 62
ENCODING 62
SWIDTH 520 0 
DWIDTH 9 0
BBX 9 20 0 -3
BITMAP
0000
0000
0000
0000
7000
3800
1C00
0E00
0700
0E00
1C00
3800
7000
0000
0000
0000
0000
0000
0000
0000
ENDCHAR
STARTCHAR 63
ENCODING 63
SWIDTH 520 0 
DWIDTH 8 0
BBX 8 20 0 -3
BITMAP
00
00
7E
FF
C3
C3
C3
07
0E
1C
18
18
18
00
18
18
00
00
00
00
ENDCHAR
STARTCHAR 64
ENCODING 64
SWIDTH 520 0 
DWIDTH 14 0
BBX 14 20 0 -3
BITMAP
0000
0000
07E0
1FF0
3838
774C
6FCC
DDCC
D8CC
D8D8
DDD0
EFF0
66EC
7838
3FF0
0FC0
0000
0000
0000
0000
ENDCHAR
STARTCHAR 65
ENCODING 65
SWIDTH 520 0 
DWIDTH 12 0
BBX 12 20 0 -3
BITMAP
0000
0000
0600
0F00
0F00
1980
1980
1980
30C0
30C0
3FC0
7FE0
6060
6060
C030
C030
0000
0000
0000
0000
ENDCHAR
STARTCHAR 66
ENCODING 66
SWIDTH 520 0 
DWIDTH 10 0
BBX 10 20 0 -3
BITMAP
0000
0000
FF00
FF80
C1C0
C0C0
C0C0
C180
FF80
FF80
C1C0
C0C0
C0C0
C1C0
FF80
FF00
0000
0000
0000
0000
ENDCHAR
STARTCHAR 67
ENCODING 67
SWIDTH 520 0 
DWIDTH 10 0
BBX 10 20 0 -3
BITMAP
0000
0000
3F00
7F80
E1C0
C0C0
C000
C000
C000
C000
C000
C000
C0C0
E1C0
7F80
3F00
0000
0000
0000
0000
ENDCHAR
STARTCHAR 68
ENCODING 68
SWIDTH 520 0 
DWIDTH 10 0
BBX 10 20 0 -3
BITMAP
0000
0000
FE00
FF00
C380
C180
C0C0
C0C0
C0C0
C0C0
C0C0
C0C0
C180
C380
FF00
FE00
0000
0000
0000
0000
ENDCHAR
STARTCHAR 69
ENCODING 69
SWIDTH 520 0 
DWIDTH 10 0
BBX 10 20 0 -3
BITMAP
0000
0000
FFC0
FFC0
C000
C000
C000
C000
FFC0
FFC0
C000
C000
C000
C000
FFC0
FFC0
0000
0000
0000
0000
ENDCHAR
STARTCHAR 70
ENCODING 70
SWIDTH 520 0 
DWIDTH 9 0
BBX 9 20 0 -3
BITMAP
0000
0000
FF80
FF80
C000
C000
C000
C000
FF80
FF80
C000
C000
C000
C000
C000
C000
0000
0000
0000
0000
ENDCHAR
STARTCHAR 71
ENCODING 71
SWIDTH 520 0 
DWIDTH 10 0
BBX 10 20 0 -3
BITMAP
0000
0000
3F00
7F80
E1C0
C0C0
C000
C000
C3C0
C3C0
C0C0
C0C0
C0C0
E1C0
7F80
3F00
0000
0000
0000
0000
ENDCHAR
STARTCHAR 72
ENCODING 72
SWIDTH 520 0 
DWIDTH 10 0
BBX 10 20 0 -3
BITMAP
0000
0000
C0C0
C0C0
C0C0
C0C0
C0C0
C0C0
FFC0
FFC0
C0C0
C0C0
C0C0
C0C0
C0C0
C0C0
0000
0000
0000
0000
ENDCHAR
STARTCHAR 73
ENCODING 73
SWIDTH 520 0 
DWIDTH 2 0
BBX 2 20 0 -3
BITMAP
00
00
C0
C0
C0
C0
C0
C0
C0
C0
C0
C0
C0
C0
C0
C0
00
00
00
00
ENDCHAR
STARTCHAR 74
ENCODING 74
SWIDTH 520 0 
DWIDTH 8 0
BBX 8 20 0 -3
BITMAP
00
00
03
03
03
03
03
03
03
03
03
03
C3
E7
7E
3C
00
00
00
00
ENDCHAR
STARTCHAR 75
ENCODING 75
SWIDTH 520 0 
DWIDTH 10 0
BBX 10 20 0 -3
BITMAP
0000
0000
C1C0
C380
C700
CE00
DC00
F800
F000
F000
F800
DC00
CE00
C700
C380
C1C0
0000
0000
0000
0000
ENDCHAR
STARTCHAR 76
ENCODING 76
SWIDTH 520 0 
DWIDTH 8 0
BBX 8 20 0 -3
BITMAP
00
00
C0
C0
C0
C0
C0
C0
C0
C0
C0
C0
C0
C0
FF
FF
00
00
00
00
ENDCHAR
STARTCHAR 77
ENCODING 77
SWIDTH 520 0 
DWIDTH 12 0
BBX 12 20 0 -3
BITMAP
0000
0000
C030
E070
E070
F0F0
F0F0
D9B0
D9B0
CF30
CF30
C630
C630
C030
C030
C030
0000
0000
0000
0000
ENDCHAR
STARTCHAR 78
ENCODING 78
SWIDTH 520 0 
DWIDTH 10 0
BBX 10 20 0 -3
BITMAP
0000
0000
C0C0
E0C0
E0C0
F0C0
F0C0
D8C0
D8C0
CCC0
CCC0
C6C0
C6C0
C3C0
C3C0
C1C0
0000
0000
0000
0000
ENDCHAR
STARTCHAR 79
ENCODING 79
SWIDTH 520 0 
DWIDTH 10 0
BBX 10 20 0 -3
BITMAP
0000
0000
3F00
7F80
E1C0
C0C0
C0C0
C0C0
C0C0
C0C0
C0C0
C0C0
C0C0
E1C0
7F80
3F00
0000
0000
0000
0000
ENDCHAR
STARTCHAR 80
ENCODING 80
SWIDTH 520 0 
DWIDTH 10 0
BBX 10 20 0 -3
BITMAP
0000
0000
FF00
FF80
C1C0
C0C0
C0C0
C0C0
C1C0
FF80
FF00
C000
C000
C000
C000
C000
0000
0000
0000
0000
ENDCHAR
STARTCHAR 81
ENCODING 81
SWIDTH 520 0 
DWIDTH 10 0
BBX 10 20 0 -3
BITMAP
0000
0000
3F00
7F80
E1C0
C0C0
C0C0
C0C0
C0C0
C0C0
C0C0
C0C0
C0C0
E1C0
7F80
3FC0
00C0
0000
0000
0000
ENDCHAR
STARTCHAR 82
ENCODING 82
SWIDTH 520 0 
DWIDTH 10 0
BBX 10 20 0 -3
BITMAP
0000
0000
FF00
FF80
C1C0
C0C0
C0C0
C1C0
FF80
FF00
C300
C300
C180
C180
C0C0
C0C0
0000
0000
0000
0000
ENDCHAR
STARTCHAR 83
ENCODING 83
SWIDTH 520 0 
DWIDTH 10 0
BBX 10 20 0 -3
BITMAP
0000
0000
3F00
7F80
E1C0
C0C0
C000
E000
7F00
1F80
01C0
C0C0
C0C0
E1C0
7F80
3F00
0000
0000
0000
0000
ENDCHAR
STARTCHAR 84
ENCODING 84
SWIDTH 520 0 
DWIDTH 12 0
BBX 12 20 0 -3
BITMAP
0000
0000
FFF0
FFF0
0600
0600
0600
0600
0600
0600
0600
0600
0600
0600
0600
0600
0000
0000
0000
0000
ENDCHAR
STARTCHAR 85
ENCODING 85
SWIDTH 520 0 
DWIDTH 10 0
BBX 10 20 0 -3
BITMAP
0000
0000
C0C0
C0C0
C0C0
C0C0
C0C0
C0C0
C0C0
C0C0
C0C0
C0C0
C0C0
E1C0
7F80
3F00
0000
0000
0000
0000
ENDCHAR
STARTCHAR 86
ENCODING 86
SWIDTH 520 0 
DWIDTH 10 0
BBX 10 20 0 -3
BITMAP
0000
0000
C0C0
C0C0
C0C0
6180
6180
6180
3300
3300
3300
1E00
1E00
1E00
0C00
0C00
0000
0000
0000
0000
ENDCHAR
STARTCHAR 87
ENCODING 87
SWIDTH 520 0 
DWIDTH 18 0
BBX 18 20 0 -3
BITMAP
000000
000000
C0C0C0
C0C0C0
C0C0C0
61E180
61E180
61E180
333300
333300
333300
1E1E00
1E1E00
1E1E00
0C0C00
0C0C00
000000
000000
000000
000000
ENDCHAR
STARTCHAR 88
ENCODING 88
SWIDTH 520 0 
DWIDTH 11 0
BBX 11 20 0 -3
BITMAP
0000
0000
C060
60C0
60C0
3180
1B00
1F00
0E00
0E00
1F00
1B00
3180
60C0
60C0
C060
0000
0000
0000
0000
ENDCHAR
STARTCHAR 89
ENCODING 89
SWIDTH 520 0 
DWIDTH 12 0
BBX 12 20 0 -3
BITMAP
0000
0000
E070
6060
30C0
30C0
1980
1980
0F00
0F00
0600
0600
0600
0600
0600
0600
0000
0000
0000
0000
ENDCHAR
STARTCHAR 90
ENCODING 90
SWIDTH 520 0 
DWIDTH 10 0
BBX 10 20 0 -3
BITMAP
0000
0000
FFC0
FFC0
00C0
01C0
0380
0700
0E00
1C00
3800
7000
E000
C000
FFC0
FFC0
0000
0000
0000
0000
ENDCHAR
STARTCHAR 91
ENCODING 91
SWIDTH 520 0 
DWIDTH 5 0
BBX 5 20 0 -3
BITMAP
00
F0
C0
C0
C0
C0
C0
C0
C0
C0
C0
C0
C0
C0
C0
C0
C0
F0
00
00
ENDCHAR
STARTCHAR 92
ENCODING 92
SWIDTH 520 0 
DWIDTH 10 0
BBX 10 20 0 -3
BITMAP
0000
0000
C000
6000
6000
3000
3000
1800
0C00
0C00
0600
0600
0300
0180
0180
00C0
0000
0000
0000
0000
ENDCHAR
STARTCHAR 93
ENCODING 93
SWIDTH 520 0 
DWIDTH 5 0
BBX 5 20 0 -3
BITMAP
00
78
18
18
18
18
18
18
18
18
18
18
18
18
18
18
18
78
00
00
ENDCHAR
STARTCHAR 94
ENCODING 94
SWIDTH 520 0 
DWIDTH 7 0
BBX 7 20 0 -3
BITMAP
00
00
00
10
38
38
6C
6C
C6
C6
00
00
00
00
00
00
00
00
00
00
ENDCHAR
STARTCHAR 95
ENCODING 95
SWIDTH 520 0 
DWIDTH 6 0
BBX 6 20 0 -3
BITMAP
00
00
00
00
00
00
00
00
00
00
00
00
00
00
00
FC
FC
00
00
00
ENDCHAR
STARTCHAR 96
ENCODING 96
SWIDTH 520 0 
DWIDTH 3 0
BBX 3 20 0 -3
BITMAP
00
00
00
80
C0
60
20
00
00
00
00
00
00
00
00
00
00
00
00
00
ENDCHAR
STARTCHAR 97
ENCODING 97
SWIDTH 520 0 
DWIDTH 9 0
BBX 9 20 0 -3
BITMAP
0000
0000
0000
0000
0000
7E00
7F80
0180
3F80
7F80
C180
C180
C180
C380
7F80
3D80
0000
0000
0000
0000
ENDCHAR
STARTCHAR 98
ENCODING 98
SWIDTH 520 0 
DWIDTH 9 0
BBX 9 20 0 -3
BITMAP
0000
C000
C000
C000
C000
DE00
FF00
E380
C180
C180
C180
C180
C180
E380
FF00
DE00
0000
0000
0000
0000
ENDCHAR
STARTCHAR 99
ENCODING 99
SWIDTH 520 0 
DWIDTH 9 0
BBX 9 20 0 -3
BITMAP
0000
0000
0000
0000
0000
3E00
7F00
E380
C180
C000
C000
C000
C180
E380
7F00
3E00
0000
0000
0000
0000
ENDCHAR
STARTCHAR 100
ENCODING 100
SWIDTH 520 0 
DWIDTH 9 0
BBX 9 20 0 -3
BITMAP
0000
0180
0180
0180
0180
3D80
7F80
E380
C180
C180
C180
C180
C180
E380
7F80
3D80
0000
0000
0000
0000
ENDCHAR
STARTCHAR 101
ENCODING 101
SWIDTH 520 0 
DWIDTH 9 0
BBX 9 20 0 -3
BITMAP
0000
0000
0000
0000
0000
3E00
7F00
E380
C180
FF80
FF80
C000
C180
E380
7F00
3E00
0000
0000
0000
0000
ENDCHAR
STARTCHAR 102
ENCODING 102
SWIDTH 520 0 
DWIDTH 7 0
BBX 7 20 0 -3
BITMAP
00
1E
3E
30
30
FE
FE
30
30
30
30
30
30
30
30
30
00
00
00
00
ENDCHAR
STARTCHAR 103
ENCODING 103
SWIDTH 520 0 
DWIDTH 9 0
BBX 9 20 0 -3
BITMAP
0000
0000
0000
0000
0000
3D80
7F80
E380
C180
C180
C180
C180
C180
E380
7F80
3D80
0180
E380
7F00
3E00
ENDCHAR
STARTCHAR 104
ENCODING 104
SWIDTH 520 0 
DWIDTH 9 0
BBX 9 20 0 -3
BITMAP
0000
C000
C000
C000
C000
DE00
FF00
E380
C180
C180
C180
C180
C180
C180
C180
C180
0000
0000
0000
0000
ENDCHAR
STARTCHAR 105
ENCODING 105
SWIDTH 520 0 
DWIDTH 2 0
BBX 2 20 0 -3
BITMAP
00
00
C0
C0
00
C0
C0
C0
C0
C0
C0
C0
C0
C0
C0
C0
00
00
00
00
ENDCHAR
STARTCHAR 106
ENCODING 106
SWIDTH 520 0 
DWIDTH 4 0
BBX 4 20 0 -3
BITMAP
00
00
30
30
00
30
30
30
30
30
30
30
30
30
30
30
30
30
F0
E0
ENDCHAR
STARTCHAR 107
ENCODING 107
SWIDTH 520 0 
DWIDTH 8 0
BBX 8 20 0 -3
BITMAP
00
00
C0
C0
C3
C7
CE
DC
F8
F0
F0
F8
DC
CE
C7
C3
00
00
00
00
ENDCHAR
STARTCHAR 108
ENCODING 108
SWIDTH 520 0 
DWIDTH 4 0
BBX 4 20 0 -3
BITMAP
00
00
F0
F0
30
30
30
30
30
30
30
30
30
30
30
30
00
00
00
00
ENDCHAR
STARTCHAR 109
ENCODING 109
SWIDTH 520 0 
DWIDTH 12 0
BBX 12 20 0 -3
BITMAP
0000
0000
0000
0000
0000
DCE0
FFF0
E730
C630
C630
C630
C630
C630
C630
C630
C630
0000
0000
0000
0000
ENDCHAR
STARTCHAR 110
ENCODING 110
SWIDTH 520 0 
DWIDTH 9 0
BBX 9 20 0 -3
BITMAP
0000
0000
0000
0000
0000
CE00
DF00
F380
E180
C180
C180
C180
C180
C180
C180
C180
0000
0000
0000
0000
ENDCHAR
STARTCHAR 111
ENCODING 111
SWIDTH 520 0 
DWIDTH 9 0
BBX 9 20 0 -3
BITMAP
0000
0000
0000
0000
0000
3E00
7F00
E380
C180
C180
C180
C180
C180
E380
7F00
3E00
0000
0000
0000
0000
ENDCHAR
STARTCHAR 112
ENCODING 112
SWIDTH 520 0 
DWIDTH 10 0
BBX 10 20 0 -3
BITMAP
0000
0000
0000
0000
0000
6F00
7F80
71C0
60C0
60C0
60C0
60C0
60C0
71C0
7F80
6F00
6000
6000
6000
6000
ENDCHAR
STARTCHAR 113
ENCODING 113
SWIDTH 520 0 
DWIDTH 9 0
BBX 9 20 0 -3
BITMAP
0000
0000
0000
0000
0000
3D80
7F80
E380
C180
C180
C180
C180
C180
E380
7F80
3D80
0180
0180
0180
0180
ENDCHAR
STARTCHAR 114
ENCODING 114
SWIDTH 520 0 
DWIDTH 7 0
BBX 7 20 0 -3
BITMAP
00
00
00
00
00
DC
FE
E6
C6
C0
C0
C0
C0
C0
C0
C0
00
00
00
00
ENDCHAR
STARTCHAR 115
ENCODING 115
SWIDTH 520 0 
DWIDTH 9 0
BBX 9 20 0 -3
BITMAP
0000
0000
0000
0000
0000
3E00
7F00
E380
E180
7C00
1F00
C380
C180
E380
7F00
3E00
0000
0000
0000
0000
ENDCHAR
STARTCHAR 116
ENCODING 116
SWIDTH 520 0 
DWIDTH 7 0
BBX 7 20 0 -3
BITMAP
00
00
60
60
60
FC
FC
60
60
60
60
60
60
66
7E
3C
00
00
00
00
ENDCHAR
STARTCHAR 117
ENCODING 117
SWIDTH 520 0 
DWIDTH 9 0
BBX 9 20 0 -3
BITMAP
0000
0000
0000
0000
0000
C180
C180
C180
C180
C180
C180
C180
C180
E380
7F80
3D80
0000
0000
0000
0000
ENDCHAR
STARTCHAR 118
ENCODING 118
SWIDTH 520 0 
DWIDTH 9 0
BBX 9 20 0 -3
BITMAP
0000
0000
0000
0000
0000
C180
C180
6300
6300
6300
3600
3600
3E00
1C00
1C00
1C00
0000
0000
0000
0000
ENDCHAR
STARTCHAR 119
ENCODING 119
SWIDTH 520 0 
DWIDTH 15 0
BBX 15 20 0 -3
BITMAP
0000
0000
0000
0000
0000
C386
C386
C386
66CC
66CC
66CC
3C78
3C78
3C78
1830
1830
0000
0000
0000
0000
ENDCHAR
STARTCHAR 120
ENCODING 120
SWIDTH 520 0 
DWIDTH 9 0
BBX 9 20 0 -3
BITMAP
0000
0000
0000
0000
0000
C180
E380
6300
7700
3E00
3E00
7700
6300
E380
C180
C180
0000
0000
0000
0000
ENDCHAR
STARTCHAR 121
ENCODING 121
SWIDTH 520 0 
DWIDTH 9 0
BBX 9 20 0 -3
BITMAP
0000
0000
0000
0000
0000
C180
C180
C180
6300
6300
6300
3600
3600
3600
1C00
1C00
1800
1800
7000
7000
ENDCHAR
STARTCHAR 122
ENCODING 122
SWIDTH 520 0 
DWIDTH 9 0
BBX 9 20 0 -3
BITMAP
0000
0000
0000
0000
0000
FF80
FF80
0380
0700
0E00
1C00
3800
7000
E000
FF80
FF80
0000
0000
0000
0000
ENDCHAR
STARTCHAR 123
ENCODING 123
SWIDTH 520 0 
DWIDTH 5 0
BBX 5 20 0 -3
BITMAP
00
30
60
60
60
60
60
60
60
C0
60
60
60
60
60
60
60
30
00
00
ENDCHAR
STARTCHAR 124
ENCODING 124
SWIDTH 520 0 
DWIDTH 2 0
BBX 2 20 0 -3
BITMAP
00
00
00
C0
C0
C0
C0
C0
C0
C0
C0
C0
C0
C0
C0
C0
C0
00
00
00
ENDCHAR
STARTCHAR 125
ENCODING 125
SWIDTH 520 0 
DWIDTH 5 0
BBX 5 20 0 -3
BITMAP
00
60
30
30
30
30
30
30
30
18
30
30
30
30
30
30
30
60
00
00
ENDCHAR
STARTCHAR 126
ENCODING 126
SWIDTH 520 0 
DWIDTH 9 0
BBX 9 20 0 -3
BITMAP
0000
0000
0000
0000
0000
0000
0000
3C80
4F00
0000
0000
0000
0000
0000
0000
0000
0000
0000
0000
0000
ENDCHAR
STARTCHAR 133
ENCODING 133
SWIDTH 520 0 
DWIDTH 9 0
BBX 9 20 0 -3
BITMAP
0000
0000
0000
0000
0180
0180
0180
0180
0180
2180
6180
FF80
6000
2000
0000
0000
0000
0000
0000
0000
ENDCHAR
STARTCHAR 134
ENCODING 134
SWIDTH 520 0 
DWIDTH 6 0
BBX 6 20 0 -3
BITMAP
00
00
00
00
00
00
00
00
00
00
00
00
CC
CC
FC
FC
00
00
00
00
ENDCHAR
STARTCHAR 161
ENCODING 161
SWIDTH 520 0 
DWIDTH 2 0
BBX 2 20 0 -3
BITMAP
C0
C0
00
C0
C0
C0
C0
C0
C0
C0
C0
C0
C0
C0
C0
C0
00
00
00
00
ENDCHAR
STARTCHAR 162
ENCODING 162
SWIDTH 520 0 
DWIDTH 10 0
BBX 10 20 0 -3
BITMAP
0000
0080
0100
3F00
7F80
E3C0
C2C0
C400
C400
C800
C800
D000
D0C0
E1C0
7F80
BF00
0000
0000
0000
0000
ENDCHAR
STARTCHAR 163
ENCODING 163
SWIDTH 520 0 
DWIDTH 9 0
BBX 9 20 0 -3
BITMAP
0000
0F00
1F00
1800
1800
7F00
7F00
1800
1800
1800
1800
7800
D800
9800
D880
EF00
0000
0000
0000
0000
ENDCHAR
STARTCHAR 164
ENCODING 164
SWIDTH 520 0 
DWIDTH 13 0
BBX 13 20 0 -3
BITMAP
0000
0000
0000
8008
5FD0
3FE0
7070
6030
6030
6030
6030
6030
7070
3FE0
5FD0
8008
0000
0000
0000
0000
ENDCHAR
STARTCHAR 165
ENCODING 165
SWIDTH 520 0 
DWIDTH 8 0
BBX 8 20 0 -3
BITMAP
00
00
00
C3
C3
C3
66
24
3C
18
FF
18
FF
18
18
18
00
00
00
00
ENDCHAR
STARTCHAR 166
ENCODING 166
SWIDTH 520 0 
DWIDTH 2 0
BBX 2 20 0 -3
BITMAP
00
00
00
C0
C0
C0
C0
C0
00
C0
C0
C0
C0
C0
00
00
00
00
00
00
ENDCHAR
STARTCHAR 167
ENCODING 167
SWIDTH 520 0 
DWIDTH 6 0
BBX 6 20 0 -3
BITMAP
00
00
38
6C
60
60
60
30
28
6C
6C
28
10
18
98
98
D8
70
00
00
ENDCHAR
STARTCHAR 168
ENCODING 168
SWIDTH 520 0 
DWIDTH 6 0
BBX 6 20 0 -3
BITMAP
00
00
00
6C
6C
00
00
00
00
00
00
00
00
00
00
00
00
00
00
00
ENDCHAR
STARTCHAR 169
ENCODING 169
SWIDTH 520 0 
DWIDTH 13 0
BBX 13 20 0 -3
BITMAP
0000
0000
0000
0F80
38E0
6030
6730
C898
C818
C818
C818
C898
6730
6030
38E0
0F80
0000
0000
0000
0000
ENDCHAR
STARTCHAR 170
ENCODING 170
SWIDTH 520 0 
DWIDTH 10 0
BBX 10 20 0 -3
BITMAP
0000
0000
0000
3E00
3F80
0180
1F80
3F80
6180
6180
6380
3F80
1D80
0000
7F80
0000
0000
0000
0000
0000
ENDCHAR
STARTCHAR 171
ENCODING 171
SWIDTH 520 0 
DWIDTH 9 0
BBX 9 20 0 -3
BITMAP
0000
0000
0000
0000
0000
0D80
1B00
3600
6C00
D800
D800
6C00
3600
1B00
0D80
0000
0000
0000
0000
0000
ENDCHAR
STARTCHAR 172
ENCODING 172
SWIDTH 520 0 
DWIDTH 8 0
BBX 8 20 0 -3
BITMAP
00
00
00
00
00
FF
FF
03
03
00
00
00
00
00
00
00
00
00
00
00
ENDCHAR
STARTCHAR 174
ENCODING 174
SWIDTH 520 0 
DWIDTH 13 0
BBX 13 20 0 -3
BITMAP
0000
0000
0000
0F80
38E0
6030
6F30
C898
C898
CF18
C918
C898
68B0
6030
38E0
0F80
0000
0000
0000
0000
ENDCHAR
STARTCHAR 175
ENCODING 175
SWIDTH 520 0 
DWIDTH 7 0
BBX 7 20 0 -3
BITMAP
00
00
00
FE
FE
00
00
00
00
00
00
00
00
00
00
00
00
00
00
00
ENDCHAR
STARTCHAR 176
ENCODING 176
SWIDTH 520 0 
DWIDTH 6 0
BBX 6 20 0 -3
BITMAP
00
00
00
30
48
84
84
48
30
00
00
00
00
00
00
00
00
00
00
00
ENDCHAR
STARTCHAR 177
ENCODING 177
SWIDTH 520 0 
DWIDTH 8 0
BBX 8 20 0 -3
BITMAP
00
00
00
18
18
18
FF
18
18
18
00
FF
00
00
00
00
00
00
00
00
ENDCHAR
STARTCHAR 178
ENCODING 178
SWIDTH 520 0 
DWIDTH 5 0
BBX 5 20 0 -3
BITMAP
00
00
00
70
88
08
30
40
F8
00
00
00
00
00
00
00
00
00
00
00
ENDCHAR
STARTCHAR 179
ENCODING 179
SWIDTH 520 0 
DWIDTH 5 0
BBX 5 20 0 -3
BITMAP
00
00
00
70
88
08
30
08
88
70
00
00
00
00
00
00
00
00
00
00
ENDCHAR
STARTCHAR 180
ENCODING 180
SWIDTH 520 0 
DWIDTH 3 0
BBX 3 20 0 -3
BITMAP
00
00
00
60
C0
00
00
00
00
00
00
00
00
00
00
00
00
00
00
00
ENDCHAR
STARTCHAR 181
ENCODING 181
SWIDTH 520 0 
DWIDTH 11 0
BBX 11 20 0 -3
BITMAP
0000
0000
0000
0000
0000
60C0
60C0
60C0
60C0
60C0
60C0
60C0
60C0
71C0
7FC0
6EE0
6000
E000
E000
0000
ENDCHAR
STARTCHAR 182
ENCODING 182
SWIDTH 520 0 
DWIDTH 8 0
BBX 8 20 0 -3
BITMAP
00
00
00
FF
FF
F2
F2
72
12
12
12
12
12
12
12
12
00
00
00
00
ENDCHAR
STARTCHAR 183
ENCODING 183
SWIDTH 520 0 
DWIDTH 3 0
BBX 3 20 0 -3
BITMAP
00
00
00
00
00
00
60
60
00
00
00
00
00
00
00
00
00
00
00
00
ENDCHAR
STARTCHAR 184
ENCODING 184
SWIDTH 520 0 
DWIDTH 4 0
BBX 4 20 0 -3
BITMAP
00
00
00
00
00
00
00
00
00
00
00
00
00
00
00
00
40
70
10
E0
ENDCHAR
STARTCHAR 185
ENCODING 185
SWIDTH 520 0 
DWIDTH 3 0
BBX 3 20 0 -3
BITMAP
00
00
00
60
60
60
60
60
60
60
60
00
00
00
00
00
00
00
00
00
ENDCHAR
STARTCHAR 186
ENCODING 186
SWIDTH 520 0 
DWIDTH 6 0
BBX 6 20 0 -3
BITMAP
00
00
00
30
48
84
84
48
30
00
FC
00
00
00
00
00
00
00
00
00
ENDCHAR
STARTCHAR 187
ENCODING 187
SWIDTH 520 0 
DWIDTH 9 0
BBX 9 20 0 -3
BITMAP
0000
0000
0000
0000
0000
D800
6C00
3600
1B00
0D80
0D80
1B00
3600
6C00
D800
0000
0000
0000
0000
0000
ENDCHAR
STARTCHAR 188
ENCODING 188
SWIDTH 520 0 
DWIDTH 11 0
BBX 11 20 0 -3
BITMAP
6000
E000
6180
6300
6300
6600
6600
0C00
0CC0
19C0
19C0
32C0
32C0
66C0
67E0
C0C0
0000
0000
0000
0000
ENDCHAR
STARTCHAR 189
ENCODING 189
SWIDTH 520 0 
DWIDTH 11 0
BBX 11 20 0 -3
BITMAP
6000
E000
6180
6300
6300
6600
6600
0C00
0C00
1B80
1CC0
34C0
3180
6300
6600
C7C0
0000
0000
0000
0000
ENDCHAR
STARTCHAR 190
ENCODING 190
SWIDTH 520 0 
DWIDTH 12 0
BBX 12 20 0 -3
BITMAP
7000
D800
18C0
3180
9980
DB00
7300
0200
0660
0CE0
0CE0
1960
1960
3360
33F0
6060
0000
0000
0000
0000
ENDCHAR
STARTCHAR 191
ENCODING 191
SWIDTH 520 0 
DWIDTH 8 0
BBX 8 20 0 -3
BITMAP
00
00
18
18
00
18
18
18
30
60
C0
C3
C3
C3
66
3C
00
00
00
00
ENDCHAR
STARTCHAR 192
ENCODING 192
SWIDTH 520 0 
DWIDTH 12 0
BBX 12 20 0 -3
BITMAP
0C00
0600
0000
0600
0F00
0F00
1980
1980
30C0
30C0
3FC0
7FE0
6060
6060
C030
C030
0000
0000
0000
0000
ENDCHAR
STARTCHAR 193
ENCODING 193
SWIDTH 520 0 
DWIDTH 12 0
BBX 12 20 0 -3
BITMAP
0600
0C00
0000
0600
0F00
0F00
1980
1980
30C0
30C0
3FC0
7FE0
6060
6060
C030
C030
0000
0000
0000
0000
ENDCHAR
STARTCHAR 194
ENCODING 194
SWIDTH 520 0 
DWIDTH 12 0
BBX 12 20 0 -3
BITMAP
0E00
1B00
0000
0600
0F00
0F00
1980
1980
30C0
30C0
3FC0
7FE0
6060
6060
C030
C030
0000
0000
0000
0000
ENDCHAR
STARTCHAR 195
ENCODING 195
SWIDTH 520 0 
DWIDTH 12 0
BBX 12 20 0 -3
BITMAP
0E80
1700
0000
0600
0F00
0F00
1980
1980
30C0
30C0
3FC0
7FE0
6060
6060
C030
C030
0000
0000
0000
0000
ENDCHAR
STARTCHAR 196
ENCODING 196
SWIDTH 520 0 
DWIDTH 12 0
BBX 12 20 0 -3
BITMAP
1980
1980
0000
0600
0F00
0F00
1980
1980
30C0
30C0
3FC0
7FE0
6060
6060
C030
C030
0000
0000
0000
0000
ENDCHAR
STARTCHAR 197
ENCODING 197
SWIDTH 520 0 
DWIDTH 12 0
BBX 12 20 0 -3
BITMAP
0F00
0900
0F00
0600
0F00
0F00
1980
1980
30C0
30C0
3FC0
7FE0
6060
6060
C030
C030
0000
0000
0000
0000
ENDCHAR
STARTCHAR 198
ENCODING 198
SWIDTH 520 0 
DWIDTH 12 0
BBX 12 20 0 -3
BITMAP
07F0
0FF0
0E00
0E00
1E00
1E00
17F0
37F0
3600
3E00
7E00
6600
6600
C600
C7F0
C7F0
0000
0000
0000
0000
ENDCHAR
STARTCHAR 199
ENCODING 199
SWIDTH 520 0 
DWIDTH 10 0
BBX 10 20 0 -3
BITMAP
0000
0000
3F00
7F80
E1C0
C0C0
C000
C000
C000
C000
C000
C000
C0C0
E1C0
7F80
3F00
0600
0200
0C00
0000
ENDCHAR
STARTCHAR 200
ENCODING 200
SWIDTH 520 0 
DWIDTH 10 0
BBX 10 20 0 -3
BITMAP
1800
0C00
0000
FFC0
FFC0
C000
C000
C000
FFC0
FFC0
C000
C000
C000
C000
FFC0
FFC0
0000
0000
0000
0000
ENDCHAR
STARTCHAR 201
ENCODING 201
SWIDTH 520 0 
DWIDTH 10 0
BBX 10 20 0 -3
BITMAP
0C00
1800
0000
FFC0
FFC0
C000
C000
C000
FFC0
FFC0
C000
C000
C000
C000
FFC0
FFC0
0000
0000
0000
0000
ENDCHAR
STARTCHAR 202
ENCODING 202
SWIDTH 520 0 
DWIDTH 10 0
BBX 10 20 0 -3
BITMAP
0E00
1B00
0000
FFC0
FFC0
C000
C000
C000
FFC0
FFC0
C000
C000
C000
C000
FFC0
FFC0
0000
0000
0000
0000
ENDCHAR
STARTCHAR 203
ENCODING 203
SWIDTH 520 0 
DWIDTH 10 0
BBX 10 20 0 -3
BITMAP
3180
3180
0000
FFC0
FFC0
C000
C000
C000
FFC0
FFC0
C000
C000
C000
C000
FFC0
FFC0
0000
0000
0000
0000
ENDCHAR
STARTCHAR 204
ENCODING 204
SWIDTH 520 0 
DWIDTH 3 0
BBX 3 20 0 -3
BITMAP
C0
60
00
60
60
60
60
60
60
60
60
60
60
60
60
60
00
00
00
00
ENDCHAR
STARTCHAR 205
ENCODING 205
SWIDTH 520 0 
DWIDTH 3 0
BBX 3 20 0 -3
BITMAP
60
C0
00
60
60
60
60
60
60
60
60
60
60
60
60
60
00
00
00
00
ENDCHAR
STARTCHAR 206
ENCODING 206
SWIDTH 520 0 
DWIDTH 5 0
BBX 5 20 0 -3
BITMAP
70
D8
00
60
60
60
60
60
60
60
60
60
60
60
60
60
00
00
00
00
ENDCHAR
STARTCHAR 207
ENCODING 207
SWIDTH 520 0 
DWIDTH 5 0
BBX 5 20 0 -3
BITMAP
D8
D8
00
60
60
60
60
60
60
60
60
60
60
60
60
60
00
00
00
00
ENDCHAR
STARTCHAR 208
ENCODING 208
SWIDTH 520 0 
DWIDTH 11 0
BBX 11 20 0 -3
BITMAP
0000
0000
0000
7F00
7F80
61C0
60C0
6060
6060
F060
6060
6060
60C0
61C0
7F80
7F00
0000
0000
0000
0000
ENDCHAR
STARTCHAR 209
ENCODING 209
SWIDTH 520 0 
DWIDTH 10 0
BBX 10 20 0 -3
BITMAP
1D00
2E00
0000
C0C0
E0C0
F0C0
F0C0
D8C0
D8C0
CCC0
CCC0
C6C0
C6C0
C3C0
C3C0
C1C0
0000
0000
0000
0000
ENDCHAR
STARTCHAR 210
ENCODING 210
SWIDTH 520 0 
DWIDTH 10 0
BBX 10 20 0 -3
BITMAP
1800
0C00
0000
3F00
7F80
E1C0
C0C0
C0C0
C0C0
C0C0
C0C0
C0C0
C0C0
E1C0
7F80
3F00
0000
0000
0000
0000
ENDCHAR
STARTCHAR 211
ENCODING 211
SWIDTH 520 0 
DWIDTH 10 0
BBX 10 20 0 -3
BITMAP
0C00
1800
0000
3F00
7F80
E1C0
C0C0
C0C0
C0C0
C0C0
C0C0
C0C0
C0C0
E1C0
7F80
3F00
0000
0000
0000
0000
ENDCHAR
STARTCHAR 212
ENCODING 212
SWIDTH 520 0 
DWIDTH 10 0
BBX 10 20 0 -3
BITMAP
1C00
3600
0000
3F00
7F80
E1C0
C0C0
C0C0
C0C0
C0C0
C0C0
C0C0
C0C0
E1C0
7F80
3F00
0000
0000
0000
0000
ENDCHAR
STARTCHAR 213
ENCODING 213
SWIDTH 520 0 
DWIDTH 10 0
BBX 10 20 0 -3
BITMAP
1D00
2E00
0000
3F00
7F80
E1C0
C0C0
C0C0
C0C0
C0C0
C0C0
C0C0
C0C0
E1C0
7F80
3F00
0000
0000
0000
0000
ENDCHAR
STARTCHAR 214
ENCODING 214
SWIDTH 520 0 
DWIDTH 10 0
BBX 10 20 0 -3
BITMAP
3300
3300
0000
3F00
7F80
E1C0
C0C0
C0C0
C0C0
C0C0
C0C0
C0C0
C0C0
E1C0
7F80
3F00
0000
0000
0000
0000
ENDCHAR
STARTCHAR 215
ENCODING 215
SWIDTH 520 0 
DWIDTH 9 0
BBX 9 20 0 -3
BITMAP
0000
0000
0000
0000
0000
C180
E380
6300
7700
3E00
3E00
7700
6300
E380
C180
C180
0000
0000
0000
0000
ENDCHAR
STARTCHAR 216
ENCODING 216
SWIDTH 520 0 
DWIDTH 10 0
BBX 10 20 0 -3
BITMAP
0000
0000
0000
3F40
7F80
E1C0
C3C0
C2C0
C4C0
C4C0
C8C0
C8C0
D0C0
F1C0
7F80
BF00
0000
0000
0000
0000
ENDCHAR
STARTCHAR 217
ENCODING 217
SWIDTH 520 0 
DWIDTH 10 0
BBX 10 20 0 -3
BITMAP
1800
0C00
0000
C0C0
C0C0
C0C0
C0C0
C0C0
C0C0
C0C0
C0C0
C0C0
C0C0
E1C0
7F80
3F00
0000
0000
0000
0000
ENDCHAR
STARTCHAR 218
ENCODING 218
SWIDTH 520 0 
DWIDTH 10 0
BBX 10 20 0 -3
BITMAP
0C00
1800
0000
C0C0
C0C0
C0C0
C0C0
C0C0
C0C0
C0C0
C0C0
C0C0
C0C0
E1C0
7F80
3F00
0000
0000
0000
0000
ENDCHAR
STARTCHAR 219
ENCODING 219
SWIDTH 520 0 
DWIDTH 10 0
BBX 10 20 0 -3
BITMAP
0E00
1B00
0000
C0C0
C0C0
C0C0
C0C0
C0C0
C0C0
C0C0
C0C0
C0C0
C0C0
E1C0
7F80
3F00
0000
0000
0000
0000
ENDCHAR
STARTCHAR 220
ENCODING 220
SWIDTH 520 0 
DWIDTH 10 0
BBX 10 20 0 -3
BITMAP
6180
6180
0000
C0C0
C0C0
C0C0
C0C0
C0C0
C0C0
C0C0
C0C0
C0C0
C0C0
E1C0
7F80
3F00
0000
0000
0000
0000
ENDCHAR
STARTCHAR 221
ENCODING 221
SWIDTH 520 0 
DWIDTH 12 0
BBX 12 20 0 -3
BITMAP
0300
0600
E070
6060
30C0
30C0
1980
0F00
0F00
0600
0600
0600
0600
0600
0600
0600
0000
0000
0000
0000
ENDCHAR
STARTCHAR 222
ENCODING 222
SWIDTH 520 0 
DWIDTH 10 0
BBX 10 20 0 -3
BITMAP
C000
C000
DE00
FF00
E380
C180
C180
C180
C180
C180
E380
FF00
DE00
C000
C000
C000
0000
0000
0000
0000
ENDCHAR
STARTCHAR 223
ENCODING 223
SWIDTH 520 0 
DWIDTH 10 0
BBX 10 20 0 -3
BITMAP
3E00
6300
6180
6180
6180
6300
6600
6400
6600
6380
61C0
60C0
60C0
60C0
7380
6F00
0000
0000
0000
0000
ENDCHAR
STARTCHAR 224
ENCODING 224
SWIDTH 520 0 
DWIDTH 9 0
BBX 9 20 0 -3
BITMAP
0000
0000
1800
0C00
0000
7E00
7F80
0180
3F80
7F80
C180
C180
C180
C380
7F80
3D80
0000
0000
0000
0000
ENDCHAR
STARTCHAR 225
ENCODING 225
SWIDTH 520 0 
DWIDTH 9 0
BBX 9 20 0 -3
BITMAP
0000
0000
0C00
1800
0000
7E00
7F80
0180
3F80
7F80
C180
C180
C180
C380
7F80
3D80
0000
0000
0000
0000
ENDCHAR
STARTCHAR 226
ENCODING 226
SWIDTH 520 0 
DWIDTH 9 0
BBX 9 20 0 -3
BITMAP
0000
0000
1C00
3600
0000
7E00
7F80
0180
3F80
7F80
C180
C180
C180
C380
7F80
3D80
0000
0000
0000
0000
ENDCHAR
STARTCHAR 227
ENCODING 227
SWIDTH 520 0 
DWIDTH 9 0
BBX 9 20 0 -3
BITMAP
0000
0000
1D00
2E00
0000
7E00
7F80
0180
3F80
7F80
C180
C180
C180
C380
7F80
3D80
0000
0000
0000
0000
ENDCHAR
STARTCHAR 228
ENCODING 228
SWIDTH 520 0 
DWIDTH 9 0
BBX 9 20 0 -3
BITMAP
0000
0000
6300
6300
0000
7E00
7F80
0180
3F80
7F80
C180
C180
C180
C380
7F80
3D80
0000
0000
0000
0000
ENDCHAR
STARTCHAR 229
ENCODING 229
SWIDTH 520 0 
DWIDTH 9 0
BBX 9 20 0 -3
BITMAP
0000
0C00
1200
0C00
0000
7E00
7F80
0180
3F80
7F80
C180
C180
C180
C380
7F80
3D80
0000
0000
0000
0000
ENDCHAR
STARTCHAR 230
ENCODING 230
SWIDTH 520 0 
DWIDTH 12 0
BBX 12 20 0 -3
BITMAP
0000
0000
0000
0000
79E0
FFF0
C630
0630
0630
7FF0
FFF0
C600
C600
C630
FFF0
79E0
0000
0000
0000
0000
ENDCHAR
STARTCHAR 231
ENCODING 231
SWIDTH 520 0 
DWIDTH 9 0
BBX 9 20 0 -3
BITMAP
0000
0000
0000
0000
3E00
7F00
E380
C180
C000
C000
C000
C000
C180
E380
7F00
3E00
0600
0200
0C00
0000
ENDCHAR
STARTCHAR 232
ENCODING 232
SWIDTH 520 0 
DWIDTH 9 0
BBX 9 20 0 -3
BITMAP
0000
0000
3000
1800
0000
3E00
7F00
E380
C180
FF80
FF80
C000
C180
E380
7F00
3E00
0000
0000
0000
0000
ENDCHAR
STARTCHAR 233
ENCODING 233
SWIDTH 520 0 
DWIDTH 9 0
BBX 9 20 0 -3
BITMAP
0000
0000
0C00
1800
0000
3E00
7F00
E380
C180
FF80
FF80
C000
C180
E380
7F00
3E00
0000
0000
0000
0000
ENDCHAR
STARTCHAR 234
ENCODING 234
SWIDTH 520 0 
DWIDTH 9 0
BBX 9 20 0 -3
BITMAP
0000
0000
1C00
3600
0000
3E00
7F00
E380
C180
FF80
FF80
C000
C180
E380
7F00
3E00
0000
0000
0000
0000
ENDCHAR
STARTCHAR 235
ENCODING 235
SWIDTH 520 0 
DWIDTH 9 0
BBX 9 20 0 -3
BITMAP
0000
0000
3600
3600
0000
3E00
7F00
E380
C180
FF80
FF80
C000
C180
E380
7F00
3E00
0000
0000
0000
0000
ENDCHAR
STARTCHAR 236
ENCODING 236
SWIDTH 520 0 
DWIDTH 3 0
BBX 3 20 0 -3
BITMAP
00
00
C0
60
00
60
60
60
60
60
60
60
60
60
60
60
00
00
00
00
ENDCHAR
STARTCHAR 237
ENCODING 237
SWIDTH 520 0 
DWIDTH 3 0
BBX 3 20 0 -3
BITMAP
00
00
60
C0
00
60
60
60
60
60
60
60
60
60
60
60
00
00
00
00
ENDCHAR
STARTCHAR 238
ENCODING 238
SWIDTH 520 0 
DWIDTH 5 0
BBX 5 20 0 -3
BITMAP
00
00
70
D8
00
60
60
60
60
60
60
60
60
60
60
60
00
00
00
00
ENDCHAR
STARTCHAR 239
ENCODING 239
SWIDTH 520 0 
DWIDTH 5 0
BBX 5 20 0 -3
BITMAP
00
00
D8
D8
00
60
60
60
60
60
60
60
60
60
60
60
00
00
00
00
ENDCHAR
STARTCHAR 240
ENCODING 240
SWIDTH 520 0 
DWIDTH 8 0
BBX 8 20 0 -3
BITMAP
00
00
68
30
38
4C
06
7E
CE
C6
C6
C6
C6
C6
CE
7C
00
00
00
00
ENDCHAR
STARTCHAR 241
ENCODING 241
SWIDTH 520 0 
DWIDTH 9 0
BBX 9 20 0 -3
BITMAP
0000
0000
1D00
2E00
0000
CE00
DF00
F380
E180
C180
C180
C180
C180
C180
C180
C180
0000
0000
0000
0000
ENDCHAR
STARTCHAR 242
ENCODING 242
SWIDTH 520 0 
DWIDTH 9 0
BBX 9 20 0 -3
BITMAP
0000
0000
1800
0C00
0000
3E00
7F00
E380
C180
C180
C180
C180
C180
E380
7F00
3E00
0000
0000
0000
0000
ENDCHAR
STARTCHAR 243
ENCODING 243
SWIDTH 520 0 
DWIDTH 9 0
BBX 9 20 0 -3
BITMAP
0000
0000
0C00
1800
0000
3E00
7F00
E380
C180
C180
C180
C180
C180
E380
7F00
3E00
0000
0000
0000
0000
ENDCHAR
STARTCHAR 244
ENCODING 244
SWIDTH 520 0 
DWIDTH 9 0
BBX 9 20 0 -3
BITMAP
0000
0000
1C00
3600
0000
3E00
7F00
E380
C180
C180
C180
C180
C180
E380
7F00
3E00
0000
0000
0000
0000
ENDCHAR
STARTCHAR 245
ENCODING 245
SWIDTH 520 0 
DWIDTH 9 0
BBX 9 20 0 -3
BITMAP
0000
0000
1D00
2E00
0000
3E00
7F00
E380
C180
C180
C180
C180
C180
E380
7F00
3E00
0000
0000
0000
0000
ENDCHAR
STARTCHAR 246
ENCODING 246
SWIDTH 520 0 
DWIDTH 9 0
BBX 9 20 0 -3
BITMAP
0000
0000
3600
3600
0000
3E00
7F00
E380
C180
C180
C180
C180
C180
E380
7F00
3E00
0000
0000
0000
0000
ENDCHAR
STARTCHAR 247
ENCODING 247
SWIDTH 520 0 
DWIDTH 8 0
BBX 8 20 0 -3
BITMAP
00
00
00
00
00
18
18
00
FF
FF
00
18
18
00
00
00
00
00
00
00
ENDCHAR
STARTCHAR 248
ENCODING 248
SWIDTH 520 0 
DWIDTH 9 0
BBX 9 20 0 -3
BITMAP
0000
0000
0000
0000
0000
3E80
7F00
E380
C580
C580
C980
D180
D180
E380
7F00
BE00
0000
0000
0000
0000
ENDCHAR
STARTCHAR 249
ENCODING 249
SWIDTH 520 0 
DWIDTH 9 0
BBX 9 20 0 -3
BITMAP
0000
0000
1800
0C00
0000
C180
C180
C180
C180
C180
C180
C180
C180
E380
7F80
3D80
0000
0000
0000
0000
ENDCHAR
STARTCHAR 250
ENCODING 250
SWIDTH 520 0 
DWIDTH 9 0
BBX 9 20 0 -3
BITMAP
0000
0000
0C00
1800
0000
C180
C180
C180
C180
C180
C180
C180
C180
E380
7F80
3D80
0000
0000
0000
0000
ENDCHAR
STARTCHAR 251
ENCODING 251
SWIDTH 520 0 
DWIDTH 9 0
BBX 9 20 0 -3
BITMAP
0000
0000
1C00
3600
0000
C180
C180
C180
C180
C180
C180
C180
C180
E380
7F80
3D80
0000
0000
0000
0000
ENDCHAR
STARTCHAR 252
ENCODING 252
SWIDTH 520 0 
DWIDTH 9 0
BBX 9 20 0 -3
BITMAP
0000
0000
6300
6300
0000
C180
C180
C180
C180
C180
C180
C180
C180
E380
7F80
3D80
0000
0000
0000
0000
ENDCHAR
STARTCHAR 253
ENCODING 253
SWIDTH 520 0 
DWIDTH 9 0
BBX 9 20 0 -3
BITMAP
0000
0000
0C00
1800
0000
C180
C180
C180
6300
6300
6300
3600
3600
3600
1C00
1C00
1800
1800
7000
7000
ENDCHAR
STARTCHAR 254
ENCODING 254
SWIDTH 520 0 
DWIDTH 10 0
BBX 10 20 0 -3
BITMAP
C000
C000
C000
DE00
E300
C180
C180
C180
C180
C180
C180
E300
DE00
C000
C000
C000
C000
0000
0000
0000
ENDCHAR
STARTCHAR 255
ENCODING 255
SWIDTH 520 0 
DWIDTH 9 0
BBX 9 20 0 -3
BITMAP
0000
0000
6300
6300
0000
C180
C180
C180
6300
6300
6300
3600
3600
3600
1C00
1C00
1800
1800
7000
7000
ENDCHAR
STARTCHAR 258
ENCODING 258
SWIDTH 520 0 
DWIDTH 12 0
BBX 12 20 0 -3
BITMAP
1B00
0E00
0000
0600
0F00
0F00
1980
1980
30C0
30C0
3FC0
7FE0
6060
6060
C030
C030
0000
0000
0000
0000
ENDCHAR
STARTCHAR 259
ENCODING 259
SWIDTH 520 0 
DWIDTH 9 0
BBX 9 20 0 -3
BITMAP
0000
0000
3600
1C00
0000
7E00
7F80
0180
3F80
7F80
C180
C180
C180
C380
7F80
3D80
0000
0000
0000
0000
ENDCHAR
STARTCHAR 260
ENCODING 260
SWIDTH 520 0 
DWIDTH 15 0
BBX 15 20 0 -3
BITMAP
0000
0000
0000
0600
0F00
0F00
1980
1980
30C0
30C0
3FC0
7FE0
6060
6060
C030
C030
0040
003C
0000
0000
ENDCHAR
STARTCHAR 261
ENCODING 261
SWIDTH 520 0 
DWIDTH 9 0
BBX 9 20 0 -3
BITMAP
0000
0000
0000
0000
0000
7E00
7F80
0180
3F80
7F80
C180
C180
C180
C380
7F80
3D80
0800
0700
0000
0000
ENDCHAR
STARTCHAR 262
ENCODING 262
SWIDTH 520 0 
DWIDTH 10 0
BBX 10 20 0 -3
BITMAP
0600
0C00
0000
3F00
7F80
E1C0
C0C0
C000
C000
C000
C000
C000
C0C0
E1C0
7F80
3F00
0000
0000
0000
0000
ENDCHAR
STARTCHAR 263
ENCODING 263
SWIDTH 520 0 
DWIDTH 9 0
BBX 9 20 0 -3
BITMAP
0000
0C00
1800
0000
3E00
7F00
E380
C180
C000
C000
C000
C000
C180
E380
7F00
3E00
0000
0000
0000
0000
ENDCHAR
STARTCHAR 268
ENCODING 268
SWIDTH 520 0 
DWIDTH 10 0
BBX 10 20 0 -3
BITMAP
1B00
0E00
0000
3F00
7F80
E1C0
C0C0
C000
C000
C000
C000
C000
C0C0
E1C0
7F80
3F00
0000
0000
0000
0000
ENDCHAR
STARTCHAR 269
ENCODING 269
SWIDTH 520 0 
DWIDTH 9 0
BBX 9 20 0 -3
BITMAP
0000
3600
1C00
0000
3E00
7F00
E380
C180
C000
C000
C000
C000
C180
E380
7F00
3E00
0000
0000
0000
0000
ENDCHAR
STARTCHAR 271
ENCODING 271
SWIDTH 520 0
DWIDTH 14 0
BBX 14 20 0 -3
BITMAP
0000
0000
00D8
00D8
00C8
00D0
1EC0
31C0
60C0
60C0
60C0
60C0
60C0
60C0
60C0
31C0
1EC0
0000
0000
0000
ENDCHAR
STARTCHAR 272
ENCODING 272
SWIDTH 520 0 
DWIDTH 11 0
BBX 11 20 0 -3
BITMAP
0000
0000
0000
7F00
7F80
61C0
60C0
6060
6060
F060
6060
6060
60C0
61C0
7F80
7F00
0000
0000
0000
0000
ENDCHAR
STARTCHAR 273
ENCODING 273
SWIDTH 520 0 
DWIDTH 9 0
BBX 9 20 0 -3
BITMAP
0000
0300
0300
1F80
0300
3B00
7F00
E700
C300
C300
C300
C300
C300
E700
7F00
3B00
0000
0000
0000
0000
ENDCHAR
STARTCHAR 279
ENCODING 279
SWIDTH 520 0 
DWIDTH 9 0
BBX 9 20 0 -3
BITMAP
0000
0000
0000
0000
0000
3E00
7F00
E380
C180
FF80
FF80
C000
C180
E380
7F00
3E00
0800
0780
0000
0000
ENDCHAR
STARTCHAR 280
ENCODING 280
SWIDTH 520 0 
DWIDTH 9 0
BBX 9 20 0 -3
BITMAP
0000
0000
FF80
FF80
C000
C000
C000
C000
FF80
FF80
C000
C000
C000
C000
FF80
FF80
0800
0780
0000
0000
ENDCHAR
STARTCHAR 281
ENCODING 281
SWIDTH 520 0 
DWIDTH 9 0
BBX 9 20 0 -3
BITMAP
0000
0000
0000
0000
0000
3E00
7F00
E380
C180
FF80
FF80
C000
C180
E380
7F00
3E00
0800
0780
0000
0000
ENDCHAR
STARTCHAR 282
ENCODING 282
SWIDTH 520 0 
DWIDTH 10 0
BBX 10 20 0 -3
BITMAP
3600
1C00
0000
FFC0
FFC0
C000
C000
C000
FFC0
FFC0
C000
C000
C000
C000
FFC0
FFC0
0000
0000
0000
0000
ENDCHAR
STARTCHAR 283
ENCODING 283
SWIDTH 520 0 
DWIDTH 9 0
BBX 9 20 0 -3
BITMAP
0000
0000
3600
1C00
0000
3E00
7F00
E380
C180
FF80
FF80
C000
C180
E380
7F00
3E00
0000
0000
0000
0000
ENDCHAR
STARTCHAR 286
ENCODING 286
SWIDTH 520 0 
DWIDTH 10 0
BBX 10 20 0 -3
BITMAP
1B00
0E00
0000
3F00
7F80
E1C0
C0C0
C000
C000
C3C0
C3C0
C0C0
C0C0
E1C0
7F80
3F00
0000
0000
0000
0000
ENDCHAR
STARTCHAR 287
ENCODING 287
SWIDTH 520 0 
DWIDTH 9 0
BBX 9 20 0 -3
BITMAP
0000
0000
3600
1C00
0000
3D80
7F80
E380
C180
C180
C180
C180
C180
E380
7F80
3D80
0180
E380
7F00
3E00
ENDCHAR
STARTCHAR 304
ENCODING 304
SWIDTH 520 0 
DWIDTH 2 0
BBX 2 20 0 -3
BITMAP
00
C0
C0
00
C0
C0
C0
C0
C0
C0
C0
C0
C0
C0
C0
C0
00
00
00
00
ENDCHAR
STARTCHAR 305
ENCODING 305
SWIDTH 520 0 
DWIDTH 2 0
BBX 2 20 0 -3
BITMAP
00
00
C0
C0
C0
C0
C0
C0
C0
C0
C0
C0
C0
C0
C0
C0
00
00
00
00
ENDCHAR
STARTCHAR 321
ENCODING 321
SWIDTH 520 0 
DWIDTH 9 0
BBX 9 20 0 -3
BITMAP
0000
0000
3000
3000
3000
3000
3400
3800
3000
7000
B000
3000
3000
3000
3F80
3F80
0000
0000
0000
0000
ENDCHAR
STARTCHAR 322
ENCODING 322
SWIDTH 520 0 
DWIDTH 8 0
BBX 8 20 0 -3
BITMAP
00
00
18
18
18
18
1A
1C
18
38
58
18
18
18
18
18
00
00
00
00
ENDCHAR
STARTCHAR 323
ENCODING 323
SWIDTH 520 0 
DWIDTH 12 0
BBX 10 20 0 -3
BITMAP
0600
0C00
0000
C0C0
E0C0
F0C0
F0C0
D8C0
D8C0
CCC0
CCC0
C6C0
C6C0
C3C0
C3C0
C1C0
0000
0000
0000
0000
ENDCHAR
STARTCHAR 324
ENCODING 324
SWIDTH 520 0 
DWIDTH 9 0
BBX 9 20 0 -3
BITMAP
0000
0000
0600
0C00
0000
CE00
DF00
F380
E180
C180
C180
C180
C180
C180
C180
C180
0000
0000
0000
0000
ENDCHAR
STARTCHAR 328
ENCODING 328
SWIDTH 520 0
DWIDTH 11 0
BBX 11 20 0 -3
BITMAP
0000
0000
0000
1B00
0E00
0000
6F00
7180
60C0
60C0
60C0
60C0
60C0
60C0
60C0
60C0
60C0
0000
0000
0000
ENDCHAR
STARTCHAR 333
ENCODING 333
SWIDTH 520 0
DWIDTH 12 0
BBX 12 20 0 -3
BITMAP
0000
0000
0000
0000
1F80
0000
1F80
30C0
6060
6060
6060
6060
6060
6060
6060
30C0
1F80
0000
0000
0000
ENDCHAR
STARTCHAR 336
ENCODING 336
SWIDTH 520 0 
DWIDTH 10 0
BBX 10 20 0 -3
BITMAP
0900
1200
0000
3F00
7F80
E1C0
C0C0
C0C0
C0C0
C0C0
C0C0
C0C0
C0C0
E1C0
7F80
3F00
0000
0000
0000
0000
ENDCHAR
STARTCHAR 337
ENCODING 337
SWIDTH 520 0 
DWIDTH 9 0
BBX 9 20 0 -3
BITMAP
0000
0000
0900
1200
0000
3E00
7F00
E380
C180
C180
C180
C180
C180
E380
7F00
3E00
0000
0000
0000
0000
ENDCHAR
STARTCHAR 339
ENCODING 339
SWIDTH 520 0
DWIDTH 14 0
BBX 14 20 0 -3
BITMAP
0000
0000
0000
0000
0000
0000
1CE0
37B0
6318
6318
6318
63F8
6300
6300
6318
3798
1CF0
0000
0000
0000
ENDCHAR
STARTCHAR 344
ENCODING 344
SWIDTH 520 0 
DWIDTH 10 0
BBX 10 20 0 -3
BITMAP
3600
1C00
0000
FF00
FF80
C1C0
C0C0
C0C0
C1C0
FF80
FF00
C300
C180
C180
C0C0
C0C0
0000
0000
0000
0000
ENDCHAR
STARTCHAR 345
ENCODING 345
SWIDTH 520 0 
DWIDTH 7 0
BBX 7 20 0 -3
BITMAP
00
00
6C
38
00
DC
FE
E6
C6
C0
C0
C0
C0
C0
C0
C0
00
00
00
00
ENDCHAR
STARTCHAR 346
ENCODING 346
SWIDTH 520 0 
DWIDTH 10 0
BBX 10 20 0 -3
BITMAP
0C00
1800
0000
3F00
7F80
E1C0
C0C0
E000
7F00
1F80
01C0
C0C0
C0C0
E1C0
7F80
3F00
0000
0000
0000
0000
ENDCHAR
STARTCHAR 347
ENCODING 347
SWIDTH 520 0 
DWIDTH 9 0
BBX 9 20 0 -3
BITMAP
0000
0000
0C00
1800
0000
3E00
7F00
E380
E180
7C00
1F00
C380
C180
E380
7F00
3E00
0000
0000
0000
0000
ENDCHAR
STARTCHAR 350
ENCODING 350
SWIDTH 520 0 
DWIDTH 10 0
BBX 10 20 0 -3
BITMAP
0000
0000
3F00
7F80
E1C0
C0C0
C000
E000
7F00
1F80
01C0
C0C0
C0C0
E1C0
7F80
3F00
0C00
0400
1800
0000
ENDCHAR
STARTCHAR 351
ENCODING 351
SWIDTH 520 0 
DWIDTH 9 0
BBX 9 20 0 -3
BITMAP
0000
0000
0000
0000
0000
3E00
7F00
E380
E180
7C00
1F00
C380
C180
E380
7F00
3E00
0C00
0400
1800
0000
ENDCHAR
STARTCHAR 352
ENCODING 352
SWIDTH 520 0 
DWIDTH 10 0
BBX 10 20 0 -3
BITMAP
3600
1C00
0000
3F00
7F80
E1C0
C0C0
E000
7F00
1F80
01C0
C0C0
C0C0
E1C0
7F80
3F00
0000
0000
0000
0000
ENDCHAR
STARTCHAR 353
ENCODING 353
SWIDTH 520 0 
DWIDTH 9 0
BBX 9 20 0 -3
BITMAP
0000
0000
3600
1C00
0000
3E00
7F00
E380
E180
7C00
1F00
C380
C180
E380
7F00
3E00
0000
0000
0000
0000
ENDCHAR
STARTCHAR 354
ENCODING 354
SWIDTH 520 0 
DWIDTH 12 0
BBX 12 20 0 -3
BITMAP
0000
0000
0000
FFF0
FFF0
0600
0600
0600
0600
0600
0600
0600
0600
0600
0600
0700
0100
0600
0000
0000
ENDCHAR
STARTCHAR 355
ENCODING 355
SWIDTH 520 0 
DWIDTH 7 0
BBX 7 20 0 -3
BITMAP
00
00
60
60
60
FC
FC
60
60
60
60
60
60
66
7E
3C
30
10
60
00
ENDCHAR
STARTCHAR 357
ENCODING 357
SWIDTH 520 0 
DWIDTH 7 0
BBX 7 20 0 -3
BITMAP
00
00
66
66
62
FC
FC
60
60
60
60
60
60
66
7E
3C
00
00
00
00
ENDCHAR
STARTCHAR 363
ENCODING 363
SWIDTH 520 0 
DWIDTH 9 0
BBX 9 20 0 -3
BITMAP
0000
0000
1980
3300
0000
C180
C180
C180
C180
C180
C180
C180
C180
E380
7F80
3D80
0000
0000
0000
0000
ENDCHAR
STARTCHAR 366
ENCODING 366
SWIDTH 520 0 
DWIDTH 10 0
BBX 10 20 0 -3
BITMAP
1E00
3300
1E00
C0C0
C0C0
C0C0
C0C0
C0C0
C0C0
C0C0
C0C0
C0C0
C0C0
E1C0
7F80
3F00
0000
0000
0000
0000
ENDCHAR
STARTCHAR 367
ENCODING 367
SWIDTH 520 0 
DWIDTH 9 0
BBX 9 20 0 -3
BITMAP
0000
1C00
3600
1C00
0000
C180
C180
C180
C180
C180
C180
C180
C180
E380
7F80
3D80
0000
0000
0000
0000
ENDCHAR
STARTCHAR 368
ENCODING 368
SWIDTH 520 0 
DWIDTH 10 0
BBX 10 20 0 -3
BITMAP
0900
1200
0000
C0C0
C0C0
C0C0
C0C0
C0C0
C0C0
C0C0
C0C0
C0C0
C0C0
E1C0
7F80
3F00
0000
0000
0000
0000
ENDCHAR
STARTCHAR 369
ENCODING 369
SWIDTH 520 0 
DWIDTH 9 0
BBX 9 20 0 -3
BITMAP
0000
0000
1200
2400
0000
C180
C180
C180
C180
C180
C180
C180
C180
E380
7F80
3D80
0000
0000
0000
0000
ENDCHAR
STARTCHAR 371
ENCODING 371
SWIDTH 520 0 
DWIDTH 9 0
BBX 9 20 0 -3
BITMAP
0000
0000
1200
2400
0000
C180
C180
C180
C180
C180
C180
C180
C180
E380
7F80
3D80
0000
0000
0000
0000
ENDCHAR
STARTCHAR 377
ENCODING 377
SWIDTH 520 0 
DWIDTH 10 0
BBX 10 20 0 -3
BITMAP
0C00
1800
0000
FFC0
FFC0
00C0
01C0
0380
0700
0E00
1C00
3800
7000
E000
FFC0
FFC0
0000
0000
0000
0000
ENDCHAR
STARTCHAR 378
ENCODING 378
SWIDTH 520 0 
DWIDTH 9 0
BBX 9 20 0 -3
BITMAP
0000
0000
0C00
1800
0000
FF80
FF80
0380
0700
0E00
1C00
3800
7000
E000
FF80
FF80
0000
0000
0000
0000
ENDCHAR
STARTCHAR 379
ENCODING 379
SWIDTH 520 0 
DWIDTH 10 0
BBX 10 20 0 -3
BITMAP
0C00
0C00
0000
FFC0
FFC0
00C0
01C0
0380
0700
0E00
1C00
3800
7000
E000
FFC0
FFC0
0000
0000
0000
0000
ENDCHAR
STARTCHAR 380
ENCODING 380
SWIDTH 520 0 
DWIDTH 9 0
BBX 9 20 0 -3
BITMAP
0000
0000
0C00
0C00
0000
FF80
FF80
0380
0700
0E00
1C00
3800
7000
E000
FF80
FF80
0000
0000
0000
0000
ENDCHAR
STARTCHAR 381
ENCODING 381
SWIDTH 520 0 
DWIDTH 10 0
BBX 10 20 0 -3
BITMAP
1B00
0E00
0000
FFC0
FFC0
00C0
01C0
0380
0700
0E00
1C00
3800
7000
E000
FFC0
FFC0
0000
0000
0000
0000
ENDCHAR
STARTCHAR 382
ENCODING 382
SWIDTH 520 0 
DWIDTH 9 0
BBX 9 20 0 -3
BITMAP
0000
0000
3600
1C00
0000
FF80
FF80
0380
0700
0E00
1C00
3800
7000
E000
FF80
FF80
0000
0000
0000
0000
ENDCHAR
STARTCHAR 394
ENCODING 394
SWIDTH 520 0 
DWIDTH 20 0
BBX 20 20 0 -3
BITMAP
000000
000000
3FFE00
7FFF80
C601C0
C600C0
C600E0
060060
060060
060060
060060
060060
060060
0600C0
0600C0
060180
07FF80
07FE00
000000
000000
ENDCHAR
STARTCHAR 399
ENCODING 399
SWIDTH 520 0 
DWIDTH 20 0
BBX 20 20 0 -3
BITMAP
000000
01F800
07FE00
0F0700
1C0380
180180
0000C0
0000C0
1FFFC0
1FFFC0
1800C0
1800C0
1800C0
1C00C0
0C0180
0E0180
070700
03FE00
01FC00
000000
ENDCHAR
STARTCHAR 408
ENCODING 408
SWIDTH 520 0 
DWIDTH 20 0
BBX 20 20 0 -3
BITMAP
000000
0C07C0
0C1FC0
0C3800
0C7000
0CE000
0DC000
0F8000
0F0000
0F8000
0DC000
0CE000
0C7000
0C3800
0C1C00
0C0E00
0C0700
0C0380
000000
000000
ENDCHAR
STARTCHAR 409
ENCODING 409
SWIDTH 520 0 
DWIDTH 20 0
BBX 20 20 0 -3
BITMAP
000000
00F800
01F800
018000
030000
030000
030000
030600
030E00
031C00
033800
037000
03E000
03E000
037000
033800
031C00
030E00
030700
030380
ENDCHAR
STARTCHAR 416
ENCODING 416
SWIDTH 520 0 
DWIDTH 12 0
BBX 12 20 0 -3
BITMAP
0000
0000
0030
3F30
7F90
E1E0
C0C0
C0C0
C0C0
C0C0
C0C0
C0C0
C0C0
E1C0
7F80
3F00
0000
0000
0000
0000
ENDCHAR
STARTCHAR 417
ENCODING 417
SWIDTH 520 0 
DWIDTH 11 0
BBX 11 20 0 -3
BITMAP
0000
0000
0000
0000
0060
3E60
7F20
E3C0
C180
C180
C180
C180
C180
E380
7F00
3E00
0000
0000
0000
0000
ENDCHAR
STARTCHAR 431
ENCODING 431
SWIDTH 520 0 
DWIDTH 12 0
BBX 12 20 0 -3
BITMAP
0000
0030
0030
C0D0
C0E0
C0C0
C0C0
C0C0
C0C0
C0C0
C0C0
C0C0
C0C0
E1C0
7F80
3F00
0000
0000
0000
0000
ENDCHAR
STARTCHAR 432
ENCODING 432
SWIDTH 520 0 
DWIDTH 11 0
BBX 11 20 0 -3
BITMAP
0000
0000
0000
0060
0060
C1A0
C1C0
C180
C180
C180
C180
C180
C180
E380
7F80
3D80
0000
0000
0000
0000
ENDCHAR
STARTCHAR 435
ENCODING 435
SWIDTH 520 0 
DWIDTH 20 0
BBX 20 20 0 -3
BITMAP
000000
000000
1C0180
1E0300
070300
038600
01C600
00CC00
00EC00
007800
007800
003000
003000
003000
003000
003000
003000
003000
003000
000000
ENDCHAR
STARTCHAR 436
ENCODING 436
SWIDTH 520 0 
DWIDTH 20 0
BBX 20 20 0 -3
BITMAP
0003C0
0007C0
000E00
600C00
601800
301800
303000
183000
183000
0C6000
0C6000
066000
06C000
03C000
03C000
018000
018000
038000
030000
070000
ENDCHAR
STARTCHAR 537
ENCODING 537
SWIDTH 520 0
DWIDTH 11 0
BBX 11 20 0 -3
BITMAP
0000
0000
0000
0000
0000
0000
1F00
3180
60C0
6000
3000
1E00
0380
00C0
60C0
3180
1F00
0600
0200
0400
ENDCHAR
STARTCHAR 539
ENCODING 539
SWIDTH 520 0
DWIDTH 7 0
BBX 7 20 0 -3
BITMAP
00
00
00
30
30
30
7C
30
30
30
30
30
30
30
30
30
1C
18
08
10
ENDCHAR
STARTCHAR 595
ENCODING 595
SWIDTH 520 0 
DWIDTH 20 0
BBX 20 20 0 -3
BITMAP
000000
01F000
03F800
031800
030800
030000
030000
03F800
03FC00
030E00
030600
030300
030300
030300
030300
030300
030600
01FC00
00F800
000000
ENDCHAR
STARTCHAR 599
ENCODING 599
SWIDTH 520 0 
DWIDTH 20 0
BBX 20 20 0 -3
BITMAP
000000
000000
000700
000F80
000C80
000C00
000C00
01FC00
03FC00
070C00
060C00
060C00
060C00
060C00
060C00
060C00
070E00
03FC00
01F800
000000
ENDCHAR
STARTCHAR 601
ENCODING 601
SWIDTH 520 0 
DWIDTH 20 0
BBX 20 20 0 -3
BITMAP
000000
000000
000000
000000
01F800
07FE00
060E00
000700
000300
000300
07FF00
07FF00
060300
060300
070700
03FE00
01FC00
000000
000000
000000
ENDCHAR
STARTCHAR 711
ENCODING 711
SWIDTH 520 0 
DWIDTH 5 0
BBX 5 20 0 -3
BITMAP
00
D8
D8
70
70
00
00
00
00
00
00
00
00
00
00
00
00
00
00
00
ENDCHAR
STARTCHAR 731
ENCODING 731
SWIDTH 520 0 
DWIDTH 5 0
BBX 5 20 0 -3
BITMAP
00
00
00
00
00
00
00
00
00
00
40
C0
90
F0
60
00
00
00
00
00
ENDCHAR
STARTCHAR 768
ENCODING 768
SWIDTH 520 0 
DWIDTH 5 0
BBX 5 20 0 -3
BITMAP
00
00
00
00
E0
60
30
00
00
00
00
00
00
00
00
00
00
00
00
00
ENDCHAR
STARTCHAR 769
ENCODING 769
SWIDTH 520 0 
DWIDTH 5 0
BBX 5 20 0 -3
BITMAP
00
00
00
00
38
30
60
00
00
00
00
00
00
00
00
00
00
00
00
00
ENDCHAR
STARTCHAR 771
ENCODING 771
SWIDTH 520 0 
DWIDTH 6 0
BBX 6 20 0 -3
BITMAP
00
00
00
00
74
B8
00
00
00
00
00
00
00
00
00
00
00
00
00
00
ENDCHAR
STARTCHAR 777
ENCODING 777
SWIDTH 520 0 
DWIDTH 5 0
BBX 5 20 0 -3
BITMAP
00
00
00
00
F0
F8
08
30
30
00
00
00
00
00
00
00
00
00
00
00
ENDCHAR
STARTCHAR 803
ENCODING 803
SWIDTH 520 0 
DWIDTH 2 0
BBX 2 20 0 -3
BITMAP
00
00
00
00
00
00
00
00
00
00
00
00
C0
C0
00
00
00
00
00
00
ENDCHAR
STARTCHAR 7778
ENCODING 7778
SWIDTH 520 0 
DWIDTH 20 0
BBX 20 20 0 -3
BITMAP
01F800
07FC00
0E0C00
0C0000
0C0000
0E0000
070000
03F800
00FC00
000E00
000600
000600
000600
0C1C00
0FF800
03F000
000000
000000
006000
006000
ENDCHAR
STARTCHAR 7779
ENCODING 7779
SWIDTH 520 0 
DWIDTH 20 0
BBX 20 20 0 -3
BITMAP
000000
000000
01F800
03FC00
060C00
060000
060000
03F000
01FC00
000E00
000600
000600
060C00
07FC00
01F000
000000
000000
006000
006000
000000
ENDCHAR
STARTCHAR 7864
ENCODING 7864
SWIDTH 520 0 
DWIDTH 20 0
BBX 20 20 0 -3
BITMAP
07FE00
07FE00
060000
060000
060000
060000
060000
07FC00
07FC00
060000
060000
060000
060000
060000
07FE00
07FE00
000000
000000
006000
006000
ENDCHAR
STARTCHAR 7865
ENCODING 7865
SWIDTH 520 0 
DWIDTH 20 0
BBX 20 20 0 -3
BITMAP
000000
000000
01F000
03F800
060C00
0C0600
0C0600
0FFE00
0FFE00
0C0000
0C0000
060600
070E00
03FC00
01F800
000000
000000
006000
006000
000000
ENDCHAR
STARTCHAR 7882
ENCODING 7882
SWIDTH 520 0 
DWIDTH 2 0
BBX 2 20 0 -3
BITMAP
00
00
C0
C0
C0
C0
C0
C0
C0
C0
C0
C0
C0
00
C0
C0
00
00
00
00
ENDCHAR
STARTCHAR 7883
ENCODING 7883
SWIDTH 520 0 
DWIDTH 2 0
BBX 2 20 0 -3
BITMAP
00
00
C0
C0
00
C0
C0
C0
C0
C0
C0
C0
C0
00
C0
C0
00
00
00
00
ENDCHAR
STARTCHAR 7884
ENCODING 7884
SWIDTH 520 0 
DWIDTH 20 0
BBX 20 20 0 -3
BITMAP
01E000
07F800
0E1C00
180600
180600
300300
300300
300300
300300
300300
300300
300300
180600
1C0E00
0E1C00
07F800
01E000
000000
00C000
00C000
ENDCHAR
STARTCHAR 7885
ENCODING 7885
SWIDTH 520 0 
DWIDTH 20 0
BBX 20 20 0 -3
BITMAP
000000
000000
01F000
07FC00
060C00
0C0600
0C0600
0C0600
0C0600
0C0600
0C0600
0C0600
060C00
07FC00
01F000
000000
000000
00C000
00C000
000000
ENDCHAR
STARTCHAR 7908
ENCODING 7908
SWIDTH 520 0 
DWIDTH 10 0
BBX 10 20 0 -3
BITMAP
C0C0
C0C0
C0C0
C0C0
C0C0
C0C0
C0C0
C0C0
C0C0
C0C0
E1C0
7F80
3F00
0000
0C00
0C00
0000
0000
0000
0000
ENDCHAR
STARTCHAR 7909
ENCODING 7909
SWIDTH 520 0 
DWIDTH 9 0
BBX 9 20 0 -3
BITMAP
0000
0000
C180
C180
C180
C180
C180
C180
C180
C180
E380
7F80
3D80
0000
0C00
0C00
0000
0000
0000
0000
ENDCHAR
STARTCHAR 8364
ENCODING 8364
SWIDTH 520 0 
DWIDTH 12 0
BBX 12 20 0 -3
BITMAP
0000
0000
0000
0000
0F80
1840
3020
3000
7F00
3000
3000
7F00
3000
3020
1840
0F80
0000
0000
0000
0000
ENDCHAR
ENDFONT
